<svg width="70" height="70" viewBox="0 0 70 70" fill="none" xmlns="http://www.w3.org/2000/svg">
<circle cx="35" cy="35" r="35" fill="#DCFAF8"/>
<g clip-path="url(#clip0_1_988)">
<path d="M49.9769 25.2237C49.8493 23.7737 48.089 23.128 47.0586 24.1586L45.5868 25.6304C45.2577 25.9594 44.7174 25.9648 44.3823 25.6423C44.0347 25.3077 44.0527 24.7312 44.3945 24.3895L45.8421 22.9419C46.8715 21.9124 46.2286 20.1515 44.7773 20.0237C40.8328 19.6769 37.7042 23.3452 38.7503 27.2352L20.8321 45.1534C19.7226 46.2628 19.7224 48.0588 20.8321 49.1685C21.9391 50.2754 23.7402 50.2755 24.8472 49.1685L42.7608 31.2549C46.6043 32.2999 50.3274 29.2041 49.9769 25.2237Z" fill="#16DBCC"/>
<path d="M21.8747 26.8823C21.9167 26.9652 21.9716 27.0409 22.0373 27.1066L24.5807 29.65C24.924 29.9932 25.4804 29.9931 25.8236 29.65L27.1171 28.3565L29.5873 30.8267L26.9464 33.4675C26.2621 34.1531 26.2626 35.2681 26.947 35.953L27.2241 36.2301L36.2378 27.217L35.9606 26.9399C35.2727 26.2532 34.1628 26.2522 33.474 26.9399L30.8301 29.5838L28.36 27.1136L29.6534 25.8201C29.9967 25.4769 29.9967 24.9204 29.6534 24.5772L27.11 22.0338C27.0436 21.9673 26.967 21.912 26.8831 21.8699L23.6322 20.2368C23.2935 20.0666 22.8842 20.1326 22.6162 20.4006L20.3949 22.6219C20.1262 22.8906 20.0606 23.3015 20.2324 23.6405L21.8747 26.8823Z" fill="#16DBCC"/>
<path d="M41.3823 35.1198L35.126 41.3762L42.311 48.563C44.0394 50.2914 46.8378 50.2919 48.5667 48.563C50.2917 46.8381 50.2917 44.0315 48.5667 42.3072L41.3823 35.1198ZM46.5307 46.5252C46.1897 46.8674 45.6318 46.8689 45.288 46.5252L40.2996 41.5367C39.9562 41.1934 39.9562 40.6368 40.2996 40.294C40.6429 39.9507 41.1995 39.9507 41.5423 40.294L46.5307 45.2825C46.874 45.6258 46.874 46.1818 46.5307 46.5252Z" fill="#16DBCC"/>
</g>
<defs>
<clipPath id="clip0_1_988">
<rect width="30" height="30" fill="white" transform="translate(20 20)"/>
</clipPath>
</defs>
</svg>
